<svg xmlns="http://www.w3.org/2000/svg" width="39" height="39" viewBox="0 0 39 39">
    <g fill="none" fill-rule="evenodd">
        <circle cx="19.5" cy="19.5" r="19.5" fill="#00A09D"/>
        <path fill="#FFF" fill-rule="nonzero" d="M21.9 14.735l.136.098 3.263 2.574 2.406-.586.135-.024c.226-.025.456.023.654.138.203.12.358.301.44.516l.035.11a1.012 1.012 0 0 1-.65 1.199l-.108.032-2.593.632c-.307.075-.63.045-.916-.082l-.14-.072-2.238-1.329-3.423 11.255a1.04 1.04 0 0 1-1.128.798 1.026 1.026 0 0 1-.934-1.009l.01-.118.016-.117 2.085-12.765a1.871 1.871 0 0 1 1.202-1.444 1.95 1.95 0 0 1 1.748.194zm-9.922 13.91c.384 0 .695.303.695.677a.686.686 0 0 1-.695.678.686.686 0 0 1-.695-.678c0-.374.31-.677.695-.677zm9.879-6.783l2.63 2.303c.187.165.306.39.337.632l.007.122v3.726a1.03 1.03 0 0 1-1.042 1.016c-.537 0-.98-.396-1.036-.905l-.007-.111v-3.272l-1.672-.94.783-2.571zm-8.033.985l.513-1.5c.057.032.115.06.174.085.106.038.216.066.327.083l.169.019-2.275 6.653a1.406 1.406 0 0 0-.754-.22 1.377 1.377 0 0 0-1.365 1.133l-.015.13-.885-.287a1.015 1.015 0 0 1-.691-1.17l.031-.115 1.646-4.755c.087-.256.275-.467.523-.588.206-.1.439-.13.663-.089l.133.034 1.806.587.513-1.5zm4.567-7.438c-.039.102-.07.206-.095.312l-.032.16-.347 2.127-1.062.094-.702 2.055-.013.034a1.088 1.088 0 0 1-1.845.304 1.027 1.027 0 0 1-.203-.926l.04-.118 1.132-2.868c.11-.28.341-.496.628-.594l.126-.034 2.373-.546zM21.878 9c1.247 0 2.258.986 2.258 2.202s-1.01 2.201-2.258 2.201-2.259-.985-2.259-2.201C19.62 9.986 20.63 9 21.878 9z"/>
    </g>
</svg>
